<svg width="86" height="26" viewBox="0 0 86 26" fill="none" xmlns="http://www.w3.org/2000/svg">
<path d="M0.973047 18.28C0.62638 18.28 0.399713 18.18 0.293047 17.98C0.18638 17.7667 0.233047 17.5133 0.433047 17.22L11.373 1C11.573 0.693333 11.7664 0.486666 11.953 0.379999C12.153 0.259999 12.4197 0.199999 12.753 0.199999C13.0064 0.199999 13.2064 0.266666 13.353 0.399999C13.4997 0.519999 13.5797 0.793332 13.593 1.22L14.493 17.38C14.5197 17.6467 14.453 17.86 14.293 18.02C14.1464 18.1933 13.8997 18.28 13.553 18.28C13.2597 18.28 13.0664 18.22 12.973 18.1C12.8797 17.9933 12.8197 17.8067 12.793 17.54L12.553 13.12H5.19305L2.27305 17.48C2.03305 17.8267 1.83971 18.0467 1.69305 18.14C1.55971 18.2333 1.31971 18.28 0.973047 18.28ZM6.29305 11.52H12.473L11.993 3.02L6.29305 11.52ZM25.6326 18.34C25.3392 18.34 25.0326 18.32 24.7126 18.28C24.4059 18.2533 24.0792 18.2267 23.7326 18.2C23.3859 18.1733 22.9992 18.16 22.5726 18.16C22.1459 18.16 21.6726 18.1933 21.1526 18.26L21.7926 17.6C22.2059 17.4933 22.6192 17.3933 23.0326 17.3C23.4592 17.2067 23.8659 17.1267 24.2526 17.06C24.6392 16.9933 24.9859 16.94 25.2926 16.9C25.6126 16.86 25.8792 16.84 26.0926 16.84C26.2126 16.84 26.2859 16.92 26.3126 17.08C26.3526 17.2267 26.3459 17.4 26.2926 17.6C26.2392 17.7867 26.1526 17.9533 26.0326 18.1C25.9259 18.26 25.7926 18.34 25.6326 18.34ZM15.2326 25.8C15.0192 25.8 14.8192 25.7533 14.6326 25.66C14.4459 25.5667 14.3992 25.3933 14.4926 25.14L19.9126 8.34C20.0059 8.07333 20.1126 7.9 20.2326 7.82C20.3659 7.74 20.5592 7.7 20.8126 7.7C21.2259 7.7 21.4859 7.76667 21.5926 7.9C21.7126 8.02 21.7259 8.21333 21.6326 8.48L21.2726 9.62C21.6992 9.11333 22.1192 8.72 22.5326 8.44C22.9459 8.14667 23.3392 7.94 23.7126 7.82C24.0992 7.68667 24.4592 7.62 24.7926 7.62C25.6459 7.62 26.3126 7.91333 26.7926 8.5C27.2859 9.08667 27.5326 9.88667 27.5326 10.9C27.5326 11.5133 27.4459 12.16 27.2726 12.84C27.0992 13.52 26.8392 14.1867 26.4926 14.84C26.1459 15.4933 25.7126 16.0867 25.1926 16.62C24.6859 17.14 24.0926 17.56 23.4126 17.88C22.7326 18.1867 21.9659 18.34 21.1126 18.34C20.6859 18.34 20.2659 18.2733 19.8526 18.14C19.4392 18.0067 19.0459 17.8333 18.6726 17.62L16.1926 25.28C16.1392 25.4533 16.0459 25.58 15.9126 25.66C15.7659 25.7533 15.5392 25.8 15.2326 25.8ZM19.0926 16.3C19.4659 16.4733 19.8059 16.6 20.1126 16.68C20.4192 16.7467 20.7392 16.78 21.0726 16.78C21.7259 16.78 22.3059 16.6533 22.8126 16.4C23.3192 16.1333 23.7526 15.7933 24.1126 15.38C24.4859 14.9533 24.7859 14.4933 25.0126 14C25.2526 13.4933 25.4259 12.9867 25.5326 12.48C25.6526 11.9733 25.7126 11.5133 25.7126 11.1C25.7126 10.7 25.6526 10.36 25.5326 10.08C25.4259 9.8 25.2592 9.58667 25.0326 9.44C24.8192 9.29333 24.5459 9.22 24.2126 9.22C23.7992 9.22 23.3726 9.35333 22.9326 9.62C22.4926 9.87333 22.0526 10.2533 21.6126 10.76C21.1726 11.2533 20.7392 11.86 20.3126 12.58L19.0926 16.3ZM25.8368 18.34C25.6501 18.34 25.5168 18.26 25.4368 18.1C25.3435 17.9533 25.3168 17.7867 25.3568 17.6C25.3835 17.4 25.4768 17.2267 25.6368 17.08C25.7968 16.92 26.0168 16.84 26.2968 16.84C26.7101 16.84 27.1235 16.7533 27.5368 16.58C27.9501 16.4067 28.3701 16.1467 28.7968 15.8C29.2235 15.4533 29.6568 15.02 30.0968 14.5C30.5368 13.9667 30.9835 13.3467 31.4368 12.64C31.5568 12.4533 31.6901 12.3667 31.8368 12.38C31.9968 12.3933 32.1235 12.4667 32.2168 12.6C32.3101 12.72 32.3235 12.86 32.2568 13.02C31.7901 13.9267 31.3035 14.7133 30.7968 15.38C30.3035 16.0467 29.7835 16.6 29.2368 17.04C28.7035 17.48 28.1568 17.8067 27.5968 18.02C27.0235 18.2333 26.4368 18.34 25.8368 18.34ZM33.341 18.34C32.6877 18.34 32.1277 18.2267 31.661 18C31.2077 17.7733 30.861 17.4533 30.621 17.04C30.381 16.6267 30.2543 16.14 30.241 15.58C30.2277 15.0067 30.3343 14.38 30.561 13.7L31.901 9.6H30.321C30.1743 9.6 30.0743 9.53333 30.021 9.4C29.9677 9.26667 29.9743 9.06667 30.041 8.8C30.121 8.53333 30.2277 8.33333 30.361 8.2C30.4943 8.06667 30.6277 8 30.761 8H32.421L33.701 4.04C33.781 3.77333 33.881 3.6 34.001 3.52C34.1343 3.44 34.3343 3.4 34.601 3.4C35.0143 3.4 35.2743 3.46667 35.381 3.6C35.501 3.72 35.5143 3.91333 35.421 4.18L34.181 8H36.701C36.8477 8 36.9477 8.06667 37.001 8.2C37.0677 8.32 37.061 8.52 36.981 8.8C36.9143 9.05333 36.8143 9.25333 36.681 9.4C36.5477 9.53333 36.4077 9.6 36.261 9.6H33.681L32.281 13.9C32.121 14.38 32.041 14.8067 32.041 15.18C32.041 15.5533 32.1077 15.8667 32.241 16.12C32.3877 16.36 32.5943 16.54 32.861 16.66C33.1277 16.78 33.4477 16.84 33.821 16.84C34.0077 16.84 34.1343 16.92 34.201 17.08C34.281 17.2267 34.3077 17.4 34.281 17.6C34.2543 17.7867 34.161 17.9533 34.001 18.1C33.841 18.26 33.621 18.34 33.341 18.34ZM33.3954 18.34C33.2087 18.34 33.0754 18.26 32.9954 18.1C32.9021 17.9533 32.8754 17.7867 32.9154 17.6C32.9421 17.4 33.0354 17.2267 33.1954 17.08C33.3554 16.92 33.5754 16.84 33.8554 16.84C34.2554 16.84 34.6621 16.7533 35.0754 16.58C35.4754 16.4067 35.8821 16.14 36.2954 15.78C36.7087 15.4067 37.1354 14.9467 37.5754 14.4C38.0287 13.8533 38.4887 13.2067 38.9554 12.46C39.0754 12.2867 39.2154 12.2067 39.3754 12.22C39.5354 12.2333 39.6554 12.3067 39.7354 12.44C39.8287 12.56 39.8354 12.7 39.7554 12.86C39.2754 13.7933 38.7821 14.6067 38.2754 15.3C37.7687 15.9933 37.2487 16.5667 36.7154 17.02C36.1954 17.46 35.6621 17.7867 35.1154 18C34.5554 18.2267 33.9821 18.34 33.3954 18.34ZM39.9349 18.34C39.4416 18.34 39.0283 18.2533 38.6949 18.08C38.3749 17.9067 38.1349 17.6667 37.9749 17.36C37.8283 17.04 37.7549 16.68 37.7549 16.28C37.7549 15.88 37.8349 15.44 37.9949 14.96L40.1549 8.34C40.2483 8.07333 40.3549 7.9 40.4749 7.82C40.6083 7.74 40.8016 7.7 41.0549 7.7C41.4683 7.7 41.7283 7.76667 41.8349 7.9C41.9549 8.02 41.9683 8.21333 41.8749 8.48L39.7149 15.14C39.4883 15.78 39.4349 16.2267 39.5549 16.48C39.6749 16.72 39.9549 16.84 40.3949 16.84C40.5816 16.84 40.7149 16.92 40.7949 17.08C40.8749 17.2267 40.8949 17.4 40.8549 17.6C40.8283 17.7867 40.7349 17.9533 40.5749 18.1C40.4283 18.26 40.2149 18.34 39.9349 18.34ZM42.2949 4.62C42.0283 4.62 41.8016 4.53333 41.6149 4.36C41.4283 4.18667 41.3349 3.93333 41.3349 3.6C41.3349 3.24 41.4483 2.9 41.6749 2.58C41.9149 2.26 42.2816 2.1 42.7749 2.1C43.0549 2.1 43.2883 2.18667 43.4749 2.36C43.6616 2.52 43.7549 2.77333 43.7549 3.12C43.7549 3.48 43.6349 3.82 43.3949 4.14C43.1683 4.46 42.8016 4.62 42.2949 4.62ZM39.9188 18.34C39.7322 18.34 39.5988 18.26 39.5188 18.1C39.4255 17.9533 39.3988 17.7867 39.4388 17.6C39.4655 17.4 39.5588 17.2267 39.7188 17.08C39.8788 16.92 40.0988 16.84 40.3788 16.84C40.7788 16.84 41.1855 16.7533 41.5988 16.58C41.9988 16.4067 42.4055 16.14 42.8188 15.78C43.2322 15.4067 43.6588 14.9467 44.0988 14.4C44.5522 13.8533 45.0122 13.2067 45.4788 12.46C45.5988 12.2867 45.7388 12.2067 45.8988 12.22C46.0588 12.2333 46.1788 12.3067 46.2588 12.44C46.3522 12.56 46.3588 12.7 46.2788 12.86C45.7988 13.7933 45.3055 14.6067 44.7988 15.3C44.2922 15.9933 43.7722 16.5667 43.2388 17.02C42.7188 17.46 42.1855 17.7867 41.6388 18C41.0788 18.2267 40.5055 18.34 39.9188 18.34ZM59.6788 18.34C59.1722 18.34 58.7588 18.2533 58.4388 18.08C58.1188 17.9067 57.8788 17.6667 57.7188 17.36C57.5722 17.04 57.4988 16.68 57.4988 16.28C57.5122 15.8667 57.5988 15.4267 57.7588 14.96L59.0188 11.12C59.1388 10.7867 59.1988 10.48 59.1988 10.2C59.1988 9.90667 59.1122 9.66667 58.9388 9.48C58.7788 9.29333 58.4855 9.2 58.0588 9.2C57.6588 9.2 57.2455 9.30667 56.8188 9.52C56.3922 9.73333 55.9655 10.04 55.5388 10.44C55.1255 10.84 54.7255 11.3133 54.3388 11.86C53.9655 12.3933 53.6188 12.9867 53.2988 13.64L52.5788 13.66C52.8988 12.7133 53.2855 11.8667 53.7388 11.12C54.1922 10.36 54.6922 9.72 55.2388 9.2C55.7855 8.68 56.3588 8.28667 56.9588 8.02C57.5588 7.75333 58.1522 7.62 58.7388 7.62C59.4855 7.62 60.0255 7.81333 60.3588 8.2C60.6922 8.58667 60.8722 9.1 60.8988 9.74C60.9255 10.3667 60.8188 11.0467 60.5788 11.78L59.4588 15.14C59.2588 15.78 59.2122 16.2267 59.3188 16.48C59.4388 16.72 59.7122 16.84 60.1388 16.84C60.3255 16.84 60.4588 16.92 60.5388 17.08C60.6322 17.2267 60.6588 17.4 60.6188 17.6C60.5788 17.7867 60.4788 17.9533 60.3188 18.1C60.1722 18.26 59.9588 18.34 59.6788 18.34ZM44.4188 18.3C44.2055 18.3 44.0055 18.2533 43.8188 18.16C43.6322 18.0667 43.5855 17.8933 43.6788 17.64L46.6788 8.34C46.7722 8.07333 46.8788 7.9 46.9988 7.82C47.1322 7.74 47.3255 7.7 47.5788 7.7C47.9922 7.7 48.2522 7.76667 48.3588 7.9C48.4788 8.02 48.4922 8.21333 48.3988 8.48L47.9188 9.98C48.2255 9.59333 48.5455 9.25333 48.8788 8.96C49.2255 8.66667 49.5722 8.42 49.9188 8.22C50.2788 8.02 50.6388 7.87333 50.9988 7.78C51.3722 7.67333 51.7455 7.62 52.1188 7.62C52.8522 7.62 53.3922 7.81333 53.7388 8.2C54.0855 8.58667 54.2655 9.1 54.2788 9.74C54.2922 10.3667 54.1788 11.0467 53.9388 11.78L51.9988 17.78C51.9322 17.9533 51.8322 18.08 51.6988 18.16C51.5655 18.2533 51.3455 18.3 51.0388 18.3C50.8255 18.3 50.6255 18.2533 50.4388 18.16C50.2655 18.0667 50.2188 17.8933 50.2988 17.64L52.3988 11.12C52.5055 10.7867 52.5655 10.48 52.5788 10.2C52.5922 9.90667 52.5122 9.66667 52.3388 9.48C52.1655 9.29333 51.8655 9.2 51.4388 9.2C51.0522 9.2 50.6522 9.3 50.2388 9.5C49.8255 9.7 49.4122 9.99333 48.9988 10.38C48.5988 10.7533 48.2122 11.2 47.8388 11.72C47.4655 12.2267 47.1188 12.7867 46.7988 13.4L45.3788 17.78C45.3255 17.9533 45.2255 18.08 45.0788 18.16C44.9455 18.2533 44.7255 18.3 44.4188 18.3ZM59.704 18.34C59.5173 18.34 59.384 18.26 59.304 18.1C59.2107 17.9533 59.184 17.7867 59.224 17.6C59.2507 17.4 59.344 17.2267 59.504 17.08C59.664 16.92 59.884 16.84 60.164 16.84C60.564 16.84 60.9707 16.7533 61.384 16.58C61.784 16.4067 62.1907 16.14 62.604 15.78C63.0173 15.4067 63.444 14.9467 63.884 14.4C64.3373 13.8533 64.7973 13.2067 65.264 12.46C65.384 12.2867 65.524 12.2067 65.684 12.22C65.844 12.2333 65.964 12.3067 66.044 12.44C66.1373 12.56 66.144 12.7 66.064 12.86C65.584 13.7933 65.0907 14.6067 64.584 15.3C64.0773 15.9933 63.5573 16.5667 63.024 17.02C62.504 17.46 61.9707 17.7867 61.424 18C60.864 18.2267 60.2907 18.34 59.704 18.34ZM66.764 18.32C66.044 18.32 65.4707 18.16 65.044 17.84C64.6173 17.52 64.3573 17.0667 64.264 16.48C64.184 15.88 64.2707 15.18 64.524 14.38L66.504 8.34C66.5973 8.07333 66.704 7.9 66.824 7.82C66.9573 7.74 67.1507 7.7 67.404 7.7C67.8173 7.7 68.0773 7.76667 68.184 7.9C68.304 8.02 68.3173 8.21333 68.224 8.48L66.244 14.5C66.084 15.0067 66.0107 15.4267 66.024 15.76C66.0373 16.0933 66.1507 16.3467 66.364 16.52C66.5907 16.68 66.9307 16.76 67.384 16.76C67.744 16.76 68.1173 16.66 68.504 16.46C68.904 16.26 69.304 15.9733 69.704 15.6C70.104 15.2267 70.4907 14.7867 70.864 14.28C71.2507 13.76 71.5973 13.1867 71.904 12.56L73.284 8.34C73.3773 8.07333 73.484 7.9 73.604 7.82C73.7373 7.74 73.9307 7.7 74.184 7.7C74.5973 7.7 74.8573 7.76667 74.964 7.9C75.084 8.02 75.0973 8.21333 75.004 8.48L72.844 15.14C72.6307 15.78 72.584 16.2267 72.704 16.48C72.824 16.72 73.0973 16.84 73.524 16.84C73.7107 16.84 73.844 16.92 73.924 17.08C74.004 17.2267 74.024 17.4 73.984 17.6C73.9573 17.7867 73.864 17.9533 73.704 18.1C73.544 18.26 73.324 18.34 73.044 18.34C72.6573 18.34 72.324 18.28 72.044 18.16C71.7773 18.0533 71.564 17.9 71.404 17.7C71.244 17.5 71.1307 17.2733 71.064 17.02C70.9973 16.7533 70.964 16.4667 70.964 16.16L71.004 15.82C70.6973 16.22 70.3707 16.5733 70.024 16.88C69.6773 17.1867 69.3173 17.4467 68.944 17.66C68.584 17.8733 68.2173 18.0333 67.844 18.14C67.484 18.26 67.124 18.32 66.764 18.32ZM73.1024 18.34C72.9158 18.34 72.7891 18.26 72.7224 18.1C72.6424 17.9533 72.6224 17.7867 72.6624 17.6C72.7024 17.4 72.8024 17.2267 72.9624 17.08C73.1091 16.92 73.3091 16.84 73.5624 16.84C74.0158 16.84 74.4891 16.6467 74.9824 16.26C75.4624 15.8733 75.9558 15.3333 76.4624 14.64C76.9824 13.9467 77.4958 13.1467 78.0024 12.24C78.5224 11.3333 79.0291 10.36 79.5224 9.32C79.6158 9.10667 79.7624 9.02 79.9624 9.06C80.1624 9.08667 80.3291 9.18667 80.4624 9.36C80.5958 9.52 80.6224 9.68667 80.5424 9.86C80.0624 10.86 79.5958 11.7933 79.1424 12.66C78.6891 13.5133 78.2291 14.2933 77.7624 15C77.2958 15.6933 76.8158 16.2933 76.3224 16.8C75.8291 17.2933 75.3224 17.6733 74.8024 17.94C74.2691 18.2067 73.7024 18.34 73.1024 18.34ZM79.942 18.38C79.502 18.38 79.082 18.34 78.682 18.26C78.2953 18.18 77.942 18.0667 77.622 17.92C77.302 17.76 77.0153 17.58 76.762 17.38C76.6553 17.3133 76.5953 17.2133 76.582 17.08C76.5686 16.9333 76.6286 16.7533 76.762 16.54C76.8953 16.3533 77.0286 16.2267 77.162 16.16C77.3086 16.0933 77.4686 16.12 77.642 16.24C77.962 16.4533 78.322 16.6333 78.722 16.78C79.122 16.9267 79.5353 17 79.962 17C80.4686 17 80.8886 16.94 81.222 16.82C81.5686 16.7 81.8286 16.52 82.002 16.28C82.1753 16.0267 82.262 15.7267 82.262 15.38C82.262 15.0333 82.162 14.7467 81.962 14.52C81.7753 14.2933 81.5286 14.0933 81.222 13.92C80.9286 13.7333 80.6086 13.5533 80.262 13.38C79.9153 13.1933 79.5886 12.9867 79.282 12.76C78.9886 12.52 78.742 12.2267 78.542 11.88C78.3553 11.52 78.262 11.08 78.262 10.56C78.262 10.0667 78.382 9.6 78.622 9.16C78.8753 8.70667 79.2686 8.34 79.802 8.06C80.3486 7.76667 81.0353 7.62 81.862 7.62C82.462 7.62 83.002 7.69333 83.482 7.84C83.962 7.98667 84.362 8.17333 84.682 8.4C85.0153 8.62667 85.262 8.86 85.422 9.1C85.5553 9.27333 85.622 9.42667 85.622 9.56C85.622 9.68 85.5286 9.82 85.342 9.98C85.182 10.1 85.0353 10.18 84.902 10.22C84.7686 10.26 84.6286 10.2133 84.482 10.08C84.162 9.78667 83.782 9.53333 83.342 9.32C82.902 9.10667 82.3953 9 81.822 9C81.1686 9 80.702 9.13333 80.422 9.4C80.142 9.66667 80.002 9.99333 80.002 10.38C80.002 10.7133 80.0953 11 80.282 11.24C80.482 11.48 80.7286 11.6933 81.022 11.88C81.3286 12.0533 81.6486 12.2333 81.982 12.42C82.3286 12.6067 82.6486 12.82 82.942 13.06C83.2486 13.2867 83.4953 13.5667 83.682 13.9C83.882 14.22 83.982 14.6333 83.982 15.14C83.982 15.9133 83.802 16.54 83.442 17.02C83.082 17.5 82.5953 17.8467 81.982 18.06C81.3686 18.2733 80.6886 18.38 79.942 18.38Z" fill="white"/>
</svg>
