<svg width="254" height="272" viewBox="0 0 254 272" fill="none" xmlns="http://www.w3.org/2000/svg">
<path d="M107.233 259.948L21.054 209.335C16.0763 206.412 16.0467 199.224 21.0002 196.26L107.738 144.354C119.713 137.188 134.652 137.162 146.652 144.287L186.223 167.783L234.076 196.195C239.079 199.166 239.024 206.427 233.977 209.322L145.385 260.143C133.554 266.929 118.993 266.855 107.233 259.948Z" stroke="white" stroke-opacity="0.4" stroke-dasharray="6 6"/>
<path d="M7.46562 72.2491L125.534 3.9902C128.962 2.00822 133.33 3.91147 134.212 7.77186L155.562 101.176C156.964 107.308 154.19 113.636 148.73 116.759L30.6294 184.321C27.6803 186.008 23.9406 184.355 23.2039 181.038L1.86928 84.9848C0.756134 79.9732 3.02122 74.8185 7.46562 72.2491Z" fill="white" stroke="black" stroke-opacity="0.4"/>
<path d="M11.9059 73.7317L129.251 5.50711C132.679 3.51371 137.058 5.41529 137.942 9.28154L159.294 102.692C160.692 108.812 157.932 115.127 152.491 118.258L35.1063 185.788C32.1568 187.484 28.408 185.832 27.6702 182.511L6.33449 86.4529C5.22366 81.4517 7.47701 76.3067 11.9059 73.7317Z" fill="white" stroke="black" stroke-opacity="0.4"/>
<path d="M150.353 114.094L38.0156 179.399C35.0587 181.118 31.2847 179.456 30.5557 176.115L26.4142 157.133C25.9961 155.217 26.9811 153.285 28.691 152.325C44.0538 143.692 38.9884 132.989 43.205 114.717C47.6746 95.3496 63.6903 96.0945 70.3946 99.0742C77.0989 102.054 87.1553 112.483 93.1147 109.131C99.0741 105.778 101.681 96.467 101.681 81.1961C101.681 65.9252 111.365 46.9298 122.539 42.4603C130.323 39.3465 136.464 41.2792 139.418 43.1423C140.17 43.6161 140.623 44.4168 140.819 45.2832L154.326 104.975C155.137 108.556 153.528 112.249 150.353 114.094Z" fill="#EE3D3A" stroke="#101010"/>
<path d="M150.353 114.094L38.0156 179.399C35.0587 181.118 31.2848 179.456 30.5557 176.115L28.6856 167.544C28.251 165.552 29.3262 163.551 31.1645 162.67C43.0681 156.96 44.4957 150.667 46.5572 139.672C48.7919 127.754 48.047 120.304 54.3788 112.483C60.7107 104.661 70.7671 105.406 77.4714 113.228C84.1757 121.049 89.7626 123.657 99.4465 119.187C109.13 114.718 106.896 105.779 108.013 86.0382C109.13 66.2978 117.325 54.379 128.498 51.3994C137.001 49.1321 141.625 53.1996 143.097 55.8459C143.241 56.1052 143.332 56.3872 143.397 56.6766L154.326 104.975C155.137 108.556 153.528 112.249 150.353 114.094Z" fill="#D20C09" stroke="#101010"/>
<path d="M14.972 77.3744L127.648 11.8176C130.1 10.3907 133.233 11.7546 133.859 14.5219L154.326 104.975C155.137 108.556 153.528 112.249 150.353 114.094L38.0156 179.399C35.0587 181.118 31.2847 179.456 30.5557 176.115L10.9878 86.4289C10.2105 82.866 11.8199 79.2084 14.972 77.3744Z" stroke="#101010" stroke-opacity="0.4"/>
<path d="M167.98 117.697C162.616 114.718 157.054 116.952 154.943 118.442C117.201 140.045 40.002 183.176 36.1284 185.857C32.2549 188.539 34.2662 197.404 35.756 198.521C60.7108 213.295 112.11 243.589 118.07 246.568C124.029 249.548 129.74 247.81 131.851 246.568C168.848 225.214 244.259 181.686 249.921 178.408C255.582 175.131 252.776 166.117 250.293 164.627C225.09 150.225 173.343 120.677 167.98 117.697Z" fill="white" stroke="black" stroke-opacity="0.4"/>
<path d="M167.235 116.952C161.871 113.972 156.309 116.207 154.199 117.697C116.456 139.3 40.002 183.176 36.1284 185.857C32.2548 188.539 34.2661 191.444 35.756 192.562C60.7108 207.336 112.11 237.629 118.07 240.609C124.029 243.589 129.74 241.85 131.851 240.609C168.848 219.255 244.259 175.726 249.921 172.449C255.582 169.171 252.031 165.372 249.548 163.882C224.345 149.48 172.598 119.932 167.235 116.952Z" fill="white"/>
<path d="M167.235 116.952C161.871 113.972 156.309 116.207 154.199 117.697C116.456 139.3 40.002 183.176 36.1284 185.857C32.2548 188.539 34.2661 191.444 35.756 192.562C60.7108 207.336 112.11 237.629 118.07 240.609C124.029 243.589 129.74 241.85 131.851 240.609C168.848 219.255 244.259 175.726 249.921 172.449C255.582 169.171 252.031 165.372 249.548 163.882C224.345 149.48 172.598 119.932 167.235 116.952Z" stroke="black" stroke-opacity="0.41"/>
<path d="M167.235 116.952C161.871 113.972 156.309 116.207 154.199 117.697C116.456 139.3 40.002 183.176 36.1284 185.857C32.2548 188.539 34.2661 191.444 35.756 192.562C60.7108 207.336 112.11 237.629 118.07 240.609C124.029 243.589 129.74 241.85 131.851 240.609C168.848 219.255 244.259 175.726 249.921 172.449C255.582 169.171 252.031 165.372 249.548 163.882C224.345 149.48 172.598 119.932 167.235 116.952Z" stroke="black" stroke-opacity="0.2"/>
<path d="M169.048 213.552L133.503 193.292C132.938 192.969 132.938 192.154 133.503 191.832L169.048 171.571C169.308 171.423 169.628 171.424 169.887 171.575L204.721 191.835C205.278 192.159 205.278 192.964 204.721 193.288L169.887 213.549C169.628 213.699 169.308 213.701 169.048 213.552Z" stroke="black" stroke-opacity="0.4"/>
<rect width="16.679" height="4.38163" rx="2.19082" transform="matrix(-0.854475 0.519493 0.519494 0.854474 91.5835 72.2568)" fill="white" fill-opacity="0.4"/>
<rect width="16.8624" height="4.38163" rx="2.19082" transform="matrix(-0.854475 0.519493 0.519494 0.854474 55.082 88.6455)" fill="white" fill-opacity="0.4"/>
<path d="M104.203 196.674L109.804 200.801C110.074 201 110.436 201.019 110.725 200.851L116.017 197.771C116.579 197.444 116.572 196.63 116.005 196.312L109.549 192.69C109.29 192.545 108.973 192.547 108.716 192.696L104.28 195.271C103.756 195.575 103.716 196.315 104.203 196.674Z" stroke="black" stroke-opacity="0.4"/>
<path d="M204.453 144.888L198.582 141.072C198.316 140.899 197.976 140.89 197.702 141.049L192.491 144.074C191.928 144.401 191.935 145.216 192.503 145.534L198.848 149.083C199.107 149.228 199.424 149.226 199.681 149.076L204.418 146.319C204.959 146.004 204.978 145.229 204.453 144.888Z" stroke="black" stroke-opacity="0.4"/>
<path d="M196.366 149.537L190 145.994C189.741 145.85 189.425 145.853 189.169 146.002L184.115 148.935C183.561 149.257 183.556 150.056 184.108 150.384L190.275 154.051C190.537 154.207 190.863 154.208 191.127 154.055L196.38 150.997C196.943 150.67 196.935 149.854 196.366 149.537Z" stroke="black" stroke-opacity="0.4"/>
<path d="M187.725 154.587L181.529 150.932C181.268 150.777 180.943 150.776 180.681 150.929L175.9 153.703C175.35 154.022 175.34 154.813 175.882 155.146L181.954 158.881C182.218 159.043 182.549 159.047 182.817 158.891L187.721 156.037C188.276 155.714 188.278 154.914 187.725 154.587Z" stroke="black" stroke-opacity="0.4"/>
<path d="M179.487 159.415L173.553 155.594C173.288 155.423 172.949 155.416 172.677 155.574L164.384 160.387C163.827 160.71 163.825 161.513 164.38 161.839L170.618 165.497C170.88 165.65 171.204 165.65 171.466 165.498L179.455 160.848C179.998 160.532 180.015 159.755 179.487 159.415Z" stroke="black" stroke-opacity="0.4"/>
<path d="M167.648 166.282L161.498 162.566C161.235 162.408 160.907 162.405 160.642 162.559L123.406 184.17C122.851 184.492 122.848 185.293 123.4 185.62L129.662 189.331C129.924 189.486 130.249 189.487 130.513 189.334L167.636 167.727C168.188 167.406 168.194 166.612 167.648 166.282Z" stroke="black" stroke-opacity="0.4"/>
<path d="M127.065 189.887L120.726 186.214C120.466 186.063 120.144 186.064 119.883 186.215L112.045 190.764C111.487 191.088 111.488 191.894 112.046 192.218L118.393 195.898C118.654 196.049 118.976 196.049 119.237 195.897L127.066 191.34C127.624 191.015 127.623 190.21 127.065 189.887Z" stroke="black" stroke-opacity="0.4"/>
<path d="M82.7814 213.794L84.8252 215.611C85.103 215.858 85.5099 215.893 85.8258 215.698L91.5903 212.129C92.1205 211.801 92.121 211.03 91.5913 210.701L89.0895 209.147C88.8176 208.978 88.4734 208.978 88.2018 209.147L82.8954 212.453C82.4189 212.75 82.3619 213.421 82.7814 213.794Z" stroke="black" stroke-opacity="0.4"/>
<path d="M107.629 200.783L105.108 199.178C104.835 199.005 104.487 199.003 104.212 199.174L99.4676 202.129C98.9413 202.457 98.9392 203.223 99.4639 203.554L101.982 205.141C102.254 205.312 102.6 205.314 102.873 205.145L107.62 202.206C108.147 201.88 108.152 201.115 107.629 200.783Z" stroke="black" stroke-opacity="0.4"/>
<path d="M99.7966 205.626L97.2848 204.047C97.0125 203.875 96.6662 203.875 96.3931 204.045L91.1464 207.313C90.6058 207.65 90.6218 208.442 91.1757 208.757L93.7989 210.247C94.0661 210.399 94.3949 210.393 94.6563 210.231L99.7916 207.052C100.32 206.725 100.323 205.957 99.7966 205.626Z" stroke="black" stroke-opacity="0.4"/>
<path d="M125.844 139.755L127.845 141.619C128.117 141.872 128.523 141.916 128.844 141.728L134.689 138.293C135.227 137.978 135.245 137.207 134.723 136.866L132.258 135.254C131.99 135.079 131.646 135.072 131.37 135.234L125.989 138.417C125.506 138.703 125.433 139.373 125.844 139.755Z" stroke="white" stroke-opacity="0.4"/>
<path d="M150.985 127.32L148.501 125.658C148.233 125.478 147.885 125.468 147.606 125.633L142.795 128.478C142.261 128.794 142.241 129.559 142.758 129.902L145.24 131.547C145.507 131.725 145.853 131.734 146.13 131.571L150.943 128.743C151.477 128.429 151.5 127.665 150.985 127.32Z" stroke="white" stroke-opacity="0.4"/>
<path d="M143.043 131.982L140.568 130.344C140.3 130.167 139.954 130.158 139.677 130.322L134.356 133.469C133.808 133.793 133.806 134.585 134.352 134.913L136.94 136.463C137.204 136.621 137.533 136.622 137.798 136.467L143.005 133.407C143.541 133.092 143.561 132.325 143.043 131.982Z" stroke="white" stroke-opacity="0.4"/>
<path d="M117.309 144.986L119.311 146.85C119.583 147.103 119.989 147.147 120.309 146.959L126.154 143.525C126.692 143.209 126.71 142.438 126.188 142.097L123.723 140.485C123.455 140.31 123.111 140.303 122.835 140.465L117.454 143.648C116.971 143.934 116.898 144.604 117.309 144.986Z" stroke="white" stroke-opacity="0.4"/>
<path d="M153.811 124.129L155.812 125.992C156.084 126.245 156.49 126.29 156.81 126.102L162.656 122.667C163.193 122.351 163.212 121.58 162.69 121.239L160.224 119.628C159.956 119.453 159.612 119.445 159.337 119.608L153.956 122.79C153.472 123.076 153.4 123.746 153.811 124.129Z" stroke="white" stroke-opacity="0.4"/>
<path d="M72.3894 170.889L74.3987 172.76C74.6745 173.016 75.0875 173.058 75.4091 172.862L80.7478 169.603C81.2749 169.282 81.2866 168.52 80.7697 168.183L78.2928 166.564C78.0201 166.385 77.6689 166.381 77.3917 166.552L72.5206 169.559C72.0486 169.85 71.9834 170.511 72.3894 170.889Z" stroke="white" stroke-opacity="0.4"/>
<path d="M47.0613 185.03L49.0706 186.901C49.3464 187.157 49.7594 187.199 50.081 187.003L55.4197 183.744C55.9467 183.423 55.9585 182.661 55.4416 182.324L52.9646 180.705C52.6919 180.527 52.3408 180.522 52.0636 180.693L47.1925 183.7C46.7205 183.991 46.6553 184.652 47.0613 185.03Z" stroke="white" stroke-opacity="0.4"/>
<path d="M95.3729 202.784L92.912 201.126C92.6452 200.946 92.2991 200.935 92.0208 201.096L86.6739 204.198C86.1229 204.518 86.1141 205.31 86.6578 205.642L89.2328 207.214C89.4952 207.374 89.824 207.378 90.0903 207.225L95.323 204.209C95.8615 203.898 95.8884 203.131 95.3729 202.784Z" stroke="black" stroke-opacity="0.4"/>
<path d="M71.6521 205.953L77.0505 209.078C77.3111 209.229 77.6325 209.229 77.8931 209.078L92.9993 200.318C93.5531 199.996 93.5587 199.199 93.0095 198.87L87.7264 195.705C87.4645 195.548 87.1382 195.546 86.874 195.699L71.6526 204.498C71.0931 204.822 71.0929 205.629 71.6521 205.953Z" stroke="black" stroke-opacity="0.4"/>
<path d="M195.082 139.681L190.009 136.581C189.746 136.42 189.416 136.416 189.15 136.57L173.852 145.415C173.292 145.738 173.292 146.547 173.853 146.87L179.105 149.895C179.365 150.045 179.686 150.045 179.946 149.894L195.066 141.125C195.617 140.806 195.626 140.014 195.082 139.681Z" stroke="black" stroke-opacity="0.4"/>
<path d="M176.679 150.296L171.153 147.424C170.898 147.292 170.593 147.298 170.345 147.442L165.265 150.379C164.716 150.696 164.703 151.486 165.243 151.82L170.315 154.965C170.579 155.129 170.911 155.133 171.18 154.978L176.713 151.769C177.286 151.436 177.267 150.602 176.679 150.296Z" stroke="black" stroke-opacity="0.4"/>
<path d="M167.859 155.456L162.648 152.385C162.386 152.231 162.063 152.23 161.8 152.382L156.903 155.213C156.353 155.531 156.341 156.32 156.881 156.655L161.964 159.808C162.228 159.972 162.56 159.976 162.829 159.821L167.854 156.907C168.41 156.584 168.412 155.782 167.859 155.456Z" stroke="black" stroke-opacity="0.4"/>
<path d="M154.621 164.581L159.732 161.617C160.286 161.296 160.292 160.499 159.744 160.169L154.573 157.061C154.311 156.903 153.984 156.901 153.719 157.054L148.521 160.059C147.963 160.382 147.961 161.187 148.518 161.512L153.776 164.58C154.037 164.732 154.36 164.732 154.621 164.581Z" stroke="black" stroke-opacity="0.4"/>
<path d="M151.565 164.886L146.19 161.881C145.931 161.736 145.616 161.738 145.359 161.887L140.161 164.892C139.606 165.213 139.6 166.011 140.149 166.34L145.348 169.457C145.61 169.615 145.937 169.617 146.202 169.463L151.576 166.347C152.14 166.02 152.133 165.204 151.565 164.886Z" stroke="black" stroke-opacity="0.4"/>
<path d="M143.231 169.721L137.855 166.701C137.597 166.555 137.28 166.557 137.023 166.706L131.8 169.726C131.245 170.047 131.239 170.846 131.79 171.175L137.013 174.293C137.275 174.449 137.602 174.451 137.866 174.298L143.241 171.18C143.804 170.854 143.798 170.039 143.231 169.721Z" stroke="black" stroke-opacity="0.4"/>
<path d="M134.745 174.687L129.674 171.476C129.409 171.308 129.074 171.302 128.803 171.458L123.778 174.363C123.232 174.679 123.216 175.461 123.748 175.8L128.813 179.024C129.078 179.192 129.414 179.199 129.686 179.042L134.717 176.124C135.263 175.807 135.278 175.025 134.745 174.687Z" stroke="black" stroke-opacity="0.4"/>
<path d="M126.578 179.421L121.479 176.211C121.215 176.045 120.881 176.038 120.611 176.195L115.404 179.205C114.858 179.52 114.842 180.303 115.374 180.641L120.456 183.871C120.721 184.039 121.057 184.046 121.329 183.888L126.551 180.859C127.098 180.542 127.112 179.758 126.578 179.421Z" stroke="black" stroke-opacity="0.4"/>
<path d="M118.089 184.365L113.114 181.067C112.848 180.891 112.505 180.881 112.229 181.04L107.015 184.055C106.46 184.375 106.454 185.174 107.003 185.503L112.255 188.65C112.517 188.807 112.844 188.809 113.108 188.656L118.046 185.792C118.585 185.479 118.608 184.709 118.089 184.365Z" stroke="black" stroke-opacity="0.4"/>
<path d="M109.732 189.208L104.722 185.915C104.457 185.741 104.115 185.731 103.84 185.89L98.6342 188.9C98.0926 189.213 98.0708 189.987 98.5939 190.33L103.617 193.624C103.883 193.798 104.224 193.808 104.499 193.648L109.692 190.637C110.232 190.323 110.254 189.551 109.732 189.208Z" stroke="black" stroke-opacity="0.4"/>
<path d="M101.319 194.099L96.3801 190.751C96.1134 190.57 95.7668 190.557 95.4879 190.719L90.3037 193.716C89.7515 194.035 89.7423 194.829 90.2868 195.161L95.5173 198.35C95.7803 198.51 96.1099 198.514 96.3763 198.359L101.269 195.522C101.805 195.211 101.832 194.447 101.319 194.099Z" stroke="black" stroke-opacity="0.4"/>
<path d="M63.4653 201.488L68.8591 204.611C69.1184 204.761 69.438 204.761 69.698 204.612L88.8917 193.611C89.4487 193.292 89.4564 192.491 88.9056 192.161L83.6273 189C83.3667 188.844 83.0421 188.84 82.7784 188.991L63.4692 200.031C62.9066 200.353 62.9045 201.163 63.4653 201.488Z" stroke="black" stroke-opacity="0.4"/>
<path d="M186.928 134.864L181.829 131.748C181.559 131.583 181.219 131.583 180.949 131.75L169.693 138.699C169.152 139.033 169.164 139.825 169.715 140.142L174.994 143.183C175.262 143.337 175.593 143.332 175.856 143.168L186.933 136.295C187.465 135.965 187.462 135.19 186.928 134.864Z" stroke="black" stroke-opacity="0.4"/>
<path d="M172.582 143.592L167.056 140.72C166.801 140.587 166.496 140.594 166.248 140.738L161.168 143.675C160.619 143.992 160.607 144.782 161.146 145.116L166.219 148.261C166.482 148.424 166.815 148.429 167.083 148.274L172.616 145.065C173.19 144.732 173.17 143.898 172.582 143.592Z" stroke="black" stroke-opacity="0.4"/>
<path d="M163.762 148.752L158.551 145.681C158.29 145.527 157.966 145.526 157.704 145.678L152.806 148.509C152.257 148.827 152.244 149.616 152.784 149.951L157.868 153.104C158.131 153.267 158.464 153.272 158.732 153.117L163.757 150.203C164.313 149.88 164.316 149.078 163.762 148.752Z" stroke="black" stroke-opacity="0.4"/>
<path d="M150.525 157.876L155.636 154.912C156.189 154.592 156.195 153.795 155.647 153.465L150.476 150.357C150.214 150.199 149.887 150.196 149.623 150.349L144.424 153.355C143.866 153.678 143.864 154.483 144.421 154.808L149.68 157.875C149.941 158.028 150.263 158.028 150.525 157.876Z" stroke="black" stroke-opacity="0.4"/>
<path d="M147.468 158.182L142.093 155.177C141.835 155.032 141.519 155.034 141.263 155.183L136.064 158.188C135.51 158.509 135.503 159.307 136.053 159.636L141.251 162.753C141.513 162.91 141.84 162.913 142.105 162.759L147.479 159.642C148.043 159.316 148.036 158.5 147.468 158.182Z" stroke="black" stroke-opacity="0.4"/>
<path d="M139.134 163.017L133.759 159.997C133.5 159.851 133.184 159.853 132.927 160.002L127.703 163.022C127.148 163.343 127.142 164.142 127.693 164.471L132.917 167.588C133.179 167.745 133.505 167.747 133.769 167.594L139.144 164.476C139.707 164.15 139.702 163.335 139.134 163.017Z" stroke="black" stroke-opacity="0.4"/>
<path d="M130.648 167.983L125.577 164.772C125.313 164.604 124.977 164.598 124.707 164.754L119.682 167.659C119.136 167.975 119.119 168.757 119.651 169.095L124.716 172.32C124.981 172.488 125.317 172.495 125.589 172.338L130.62 169.42C131.166 169.103 131.181 168.321 130.648 167.983Z" stroke="black" stroke-opacity="0.4"/>
<path d="M122.481 172.717L117.382 169.507C117.118 169.341 116.784 169.334 116.514 169.49L111.307 172.5C110.761 172.816 110.745 173.599 111.277 173.937L116.359 177.167C116.624 177.335 116.96 177.342 117.232 177.184L122.455 174.155C123.001 173.838 123.016 173.054 122.481 172.717Z" stroke="black" stroke-opacity="0.4"/>
<path d="M113.992 177.66L109.017 174.363C108.751 174.187 108.408 174.176 108.132 174.336L102.918 177.351C102.363 177.671 102.357 178.47 102.907 178.799L108.158 181.945C108.42 182.103 108.747 182.105 109.011 181.952L113.949 179.088C114.489 178.775 114.512 178.005 113.992 177.66Z" stroke="black" stroke-opacity="0.4"/>
<path d="M105.635 182.504L100.625 179.211C100.36 179.037 100.019 179.027 99.7434 179.186L94.5374 182.196C93.9958 182.509 93.974 183.283 94.4971 183.626L99.5199 186.92C99.7858 187.094 100.127 187.104 100.402 186.944L105.595 183.933C106.136 183.619 106.157 182.847 105.635 182.504Z" stroke="black" stroke-opacity="0.4"/>
<path d="M97.2222 187.395L92.2833 184.046C92.0166 183.866 91.6701 183.853 91.3911 184.015L86.2069 187.012C85.6548 187.331 85.6455 188.125 86.19 188.457L91.4205 191.646C91.6835 191.806 92.0131 191.809 92.2795 191.655L97.1722 188.818C97.7081 188.507 97.7349 187.743 97.2222 187.395Z" stroke="black" stroke-opacity="0.4"/>
<path d="M55.2508 196.634L60.658 199.765C60.9209 199.917 61.2455 199.915 61.507 199.76L82.589 187.285C83.1372 186.961 83.1393 186.168 82.5929 185.841L77.302 182.672C77.0378 182.513 76.7082 182.512 76.443 182.669L55.2447 195.183C54.6911 195.51 54.6945 196.312 55.2508 196.634Z" stroke="black" stroke-opacity="0.4"/>
<path d="M178.704 130.003L173.623 126.899C173.359 126.737 173.027 126.734 172.76 126.891L163.409 132.376C162.853 132.702 162.856 133.507 163.415 133.829L168.673 136.857C168.935 137.008 169.258 137.006 169.519 136.853L178.693 131.444C179.239 131.122 179.245 130.334 178.704 130.003Z" stroke="black" stroke-opacity="0.4"/>
<path d="M166.25 137.26L160.724 134.388C160.469 134.255 160.164 134.262 159.916 134.406L154.836 137.343C154.287 137.66 154.275 138.45 154.814 138.784L159.887 141.929C160.15 142.092 160.483 142.097 160.751 141.942L166.284 138.733C166.858 138.4 166.838 137.566 166.25 137.26Z" stroke="black" stroke-opacity="0.4"/>
<path d="M157.43 142.42L152.219 139.349C151.958 139.195 151.634 139.194 151.372 139.346L146.474 142.177C145.924 142.495 145.912 143.284 146.452 143.619L151.536 146.772C151.799 146.935 152.132 146.94 152.4 146.785L157.425 143.871C157.981 143.548 157.984 142.746 157.43 142.42Z" stroke="black" stroke-opacity="0.4"/>
<path d="M144.193 151.544L149.303 148.58C149.857 148.26 149.863 147.463 149.315 147.133L144.144 144.025C143.882 143.867 143.555 143.864 143.291 144.017L138.092 147.023C137.534 147.346 137.532 148.151 138.089 148.476L143.348 151.543C143.609 151.696 143.931 151.696 144.193 151.544Z" stroke="black" stroke-opacity="0.4"/>
<path d="M141.136 151.85L135.761 148.845C135.503 148.7 135.187 148.702 134.93 148.851L129.732 151.856C129.178 152.177 129.171 152.975 129.721 153.304L134.919 156.421C135.181 156.578 135.508 156.581 135.773 156.427L141.147 153.31C141.711 152.984 141.704 152.168 141.136 151.85Z" stroke="black" stroke-opacity="0.4"/>
<path d="M132.802 156.685L127.427 153.665C127.168 153.519 126.851 153.521 126.594 153.67L121.371 156.69C120.816 157.011 120.81 157.81 121.361 158.139L126.585 161.256C126.847 161.413 127.173 161.415 127.437 161.262L132.812 158.144C133.375 157.818 133.37 157.003 132.802 156.685Z" stroke="black" stroke-opacity="0.4"/>
<path d="M124.316 161.651L119.245 158.44C118.981 158.272 118.645 158.265 118.375 158.422L113.35 161.327C112.804 161.643 112.787 162.425 113.319 162.763L118.384 165.988C118.649 166.156 118.985 166.163 119.257 166.006L124.288 163.088C124.834 162.771 124.849 161.989 124.316 161.651Z" stroke="black" stroke-opacity="0.4"/>
<path d="M116.149 166.385L111.05 163.175C110.786 163.009 110.452 163.002 110.182 163.158L104.975 166.168C104.429 166.484 104.413 167.267 104.945 167.605L110.027 170.835C110.292 171.003 110.628 171.01 110.9 170.852L116.123 167.823C116.669 167.506 116.684 166.722 116.149 166.385Z" stroke="black" stroke-opacity="0.4"/>
<path d="M107.66 171.328L102.685 168.031C102.419 167.855 102.076 167.844 101.8 168.004L96.5859 171.019C96.0313 171.339 96.0251 172.138 96.5746 172.467L101.826 175.613C102.088 175.771 102.415 175.773 102.679 175.62L107.617 172.756C108.157 172.443 108.18 171.673 107.66 171.328Z" stroke="black" stroke-opacity="0.4"/>
<path d="M99.3031 176.172L94.2934 172.879C94.0278 172.705 93.6865 172.695 93.4113 172.854L88.2054 175.864C87.6638 176.177 87.642 176.951 88.1651 177.294L93.1878 180.588C93.4537 180.762 93.7952 180.772 94.0703 180.612L99.2632 177.601C99.8036 177.287 99.8252 176.515 99.3031 176.172Z" stroke="black" stroke-opacity="0.4"/>
<path d="M90.8901 181.063L85.9512 177.714C85.6846 177.534 85.338 177.521 85.0591 177.683L79.8748 180.68C79.3227 180.999 79.3135 181.793 79.858 182.125L85.0885 185.314C85.3515 185.474 85.6811 185.477 85.9475 185.323L90.8401 182.486C91.376 182.175 91.4029 181.411 90.8901 181.063Z" stroke="black" stroke-opacity="0.4"/>
<path d="M47.4301 191.793L52.836 194.923C53.0991 195.075 53.4239 195.073 53.6854 194.918L62.105 189.929C62.6527 189.604 62.6546 188.812 62.1084 188.485L56.8163 185.315C56.5523 185.157 56.2229 185.156 55.9578 185.312L47.4245 190.342C46.8705 190.668 46.8736 191.471 47.4301 191.793Z" stroke="black" stroke-opacity="0.4"/>
<path d="M171.092 125.342L165.566 122.469C165.311 122.337 165.006 122.344 164.758 122.488L159.678 125.424C159.129 125.742 159.117 126.531 159.656 126.866L164.729 130.011C164.992 130.174 165.324 130.179 165.593 130.023L171.126 126.814C171.7 126.482 171.68 125.647 171.092 125.342Z" stroke="black" stroke-opacity="0.4"/>
<path d="M162.272 130.501L157.061 127.431C156.8 127.277 156.476 127.276 156.213 127.427L151.316 130.259C150.766 130.576 150.754 131.365 151.294 131.7L156.377 134.853C156.641 135.017 156.974 135.022 157.242 134.866L162.267 131.952C162.823 131.63 162.826 130.828 162.272 130.501Z" stroke="black" stroke-opacity="0.4"/>
<path d="M149.035 139.626L154.145 136.662C154.699 136.341 154.705 135.544 154.157 135.215L148.986 132.106C148.724 131.949 148.397 131.946 148.133 132.099L142.934 135.104C142.376 135.427 142.374 136.233 142.931 136.558L148.19 139.625C148.451 139.777 148.773 139.778 149.035 139.626Z" stroke="black" stroke-opacity="0.4"/>
<path d="M145.978 139.932L140.603 136.926C140.345 136.782 140.029 136.784 139.772 136.932L134.574 139.938C134.02 140.258 134.013 141.056 134.562 141.386L139.761 144.503C140.023 144.66 140.35 144.662 140.615 144.509L145.989 141.392C146.553 141.065 146.546 140.25 145.978 139.932Z" stroke="black" stroke-opacity="0.4"/>
<path d="M137.644 144.766L132.269 141.746C132.01 141.601 131.693 141.603 131.436 141.751L126.213 144.771C125.658 145.092 125.652 145.892 126.203 146.22L131.427 149.338C131.689 149.494 132.015 149.496 132.279 149.343L137.654 146.226C138.217 145.899 138.212 145.085 137.644 144.766Z" stroke="black" stroke-opacity="0.4"/>
<path d="M129.158 149.733L124.087 146.521C123.823 146.354 123.487 146.347 123.217 146.504L118.192 149.409C117.646 149.724 117.629 150.506 118.161 150.845L123.226 154.069C123.491 154.238 123.827 154.245 124.099 154.087L129.13 151.169C129.676 150.853 129.691 150.07 129.158 149.733Z" stroke="black" stroke-opacity="0.4"/>
<path d="M120.991 154.467L115.892 151.256C115.628 151.09 115.294 151.084 115.024 151.24L109.817 154.25C109.271 154.566 109.255 155.348 109.787 155.687L114.869 158.916C115.134 159.084 115.47 159.091 115.742 158.934L120.965 155.905C121.511 155.588 121.526 154.804 120.991 154.467Z" stroke="black" stroke-opacity="0.4"/>
<path d="M112.502 159.41L107.527 156.113C107.261 155.937 106.918 155.926 106.642 156.086L101.428 159.1C100.873 159.421 100.867 160.219 101.417 160.548L106.668 163.695C106.93 163.852 107.257 163.854 107.521 163.701L112.459 160.837C112.999 160.525 113.022 159.754 112.502 159.41Z" stroke="black" stroke-opacity="0.4"/>
<path d="M104.145 164.253L99.1354 160.961C98.8698 160.786 98.5284 160.776 98.2533 160.935L93.0473 163.945C92.5057 164.258 92.4839 165.032 93.007 165.375L98.0298 168.67C98.2957 168.844 98.6372 168.853 98.9122 168.694L104.105 165.682C104.646 165.369 104.667 164.596 104.145 164.253Z" stroke="black" stroke-opacity="0.4"/>
<path d="M95.7321 169.145L90.7932 165.796C90.5265 165.615 90.18 165.603 89.901 165.764L84.7168 168.761C84.1647 169.08 84.1554 169.874 84.7 170.206L89.9305 173.395C90.1934 173.555 90.523 173.559 90.7894 173.405L95.6821 170.567C96.218 170.256 96.2448 169.492 95.7321 169.145Z" stroke="black" stroke-opacity="0.4"/>
<path d="M86.7927 174.231L81.8538 170.883C81.5871 170.702 81.2406 170.689 80.9616 170.851L75.7774 173.848C75.2253 174.167 75.216 174.961 75.7605 175.293L80.991 178.482C81.254 178.642 81.5836 178.646 81.85 178.491L86.7427 175.654C87.2786 175.343 87.3054 174.579 86.7927 174.231Z" stroke="black" stroke-opacity="0.4"/>
<path d="M78.5988 178.701L73.6599 175.352C73.3933 175.171 73.0467 175.159 72.7678 175.32L67.5835 178.317C67.0314 178.637 67.0222 179.43 67.5667 179.762L72.7972 182.951C73.0602 183.112 73.3898 183.115 73.6562 182.961L78.5488 180.123C79.0847 179.813 79.1116 179.049 78.5988 178.701Z" stroke="black" stroke-opacity="0.4"/>
<path d="M70.4045 183.915L65.4656 180.566C65.1989 180.385 64.8524 180.373 64.5735 180.534L59.3892 183.531C58.8371 183.851 58.8278 184.644 59.3724 184.976L64.6029 188.165C64.8658 188.326 65.1954 188.329 65.4619 188.175L70.3545 185.337C70.8904 185.026 70.9172 184.262 70.4045 183.915Z" stroke="black" stroke-opacity="0.4"/>
</svg>
