<?xml version="1.0" standalone="no"?><svg xmlns="http://www.w3.org/2000/svg" viewBox="10 -20 1420 320"><path fill="#ffffff" fill-opacity="1" d="M0,192L34.3,192C68.6,192,137,192,206,176C274.3,160,343,128,411,149.3C480,171,549,245,617,240C685.7,235,754,149,823,128C891.4,107,960,149,1029,144C1097.1,139,1166,85,1234,90.7C1302.9,96,1371,160,1406,192L1440,224L1440,320L1405.7,320C1371.4,320,1303,320,1234,320C1165.7,320,1097,320,1029,320C960,320,891,320,823,320C754.3,320,686,320,617,320C548.6,320,480,320,411,320C342.9,320,274,320,206,320C137.1,320,69,320,34,320L0,320Z"></path></svg>